<svg width="289" height="41" viewBox="0 0 289 41" fill="none" xmlns="http://www.w3.org/2000/svg">
<path fill-rule="evenodd" clip-rule="evenodd" d="M23.2399 33.4403C23.5233 33.6021 23.827 33.7638 24.1306 33.9053C26.3979 34.9567 27.4506 35.6441 27.4506 37.0998C27.4506 38.6565 26.1752 39.9303 24.6165 39.9303C23.4018 39.9303 22.3896 39.162 21.9848 38.0904C20.507 39.5866 18.4826 40.5166 16.2153 40.5166C11.7414 40.5166 8.11777 36.8976 8.11777 32.4294C8.11777 32.0049 8.1785 31.5803 8.23923 31.1557C4.08925 29.9426 0.890727 26.4854 0.16195 22.1588C0.0607314 21.532 0 20.9053 0 20.2583C0 19.6113 0.0607314 18.9846 0.16195 18.3578C0.910971 14.0514 4.08925 10.5739 8.23923 9.36087C8.2367 9.34315 8.23416 9.32547 8.23163 9.30782C8.17354 8.90248 8.11777 8.51337 8.11777 8.08714C8.11777 3.619 11.7414 0 16.2153 0C18.4624 0 20.507 0.930021 21.9848 2.42614C22.3896 1.3546 23.4018 0.586318 24.6165 0.586318C26.1752 0.586318 27.4506 1.86004 27.4506 3.41682C27.4506 4.99381 26.3979 5.68122 24.1306 6.73254C23.906 6.83723 23.6924 6.95299 23.4736 7.07162C23.3966 7.11336 23.3189 7.15546 23.2399 7.19756L23.2398 7.1976C23.0576 7.29867 22.8755 7.39975 22.7135 7.50082C22.5718 7.58169 22.4504 7.66256 22.3289 7.74342L22.3289 7.74344C22.2884 7.76366 22.253 7.78893 22.2176 7.8142C22.1821 7.83947 22.1467 7.86474 22.1062 7.88496C21.4179 8.32975 20.7904 8.85542 20.1831 9.4013C20.1628 9.41141 20.1476 9.42657 20.1325 9.44174C20.1173 9.4569 20.1021 9.47206 20.0819 9.48217C19.8389 9.72479 19.596 9.9674 19.3733 10.21C19.343 10.2403 19.3126 10.2757 19.2822 10.3111C19.2519 10.3465 19.2215 10.3819 19.1911 10.4122C19.0955 10.5315 18.9968 10.6478 18.8986 10.7633C18.7473 10.9414 18.5974 11.1179 18.4624 11.3018C16.5797 13.8088 15.4258 16.9426 15.4258 20.3189C15.4258 23.6953 16.5594 26.8291 18.4624 29.3361C18.685 29.6394 18.928 29.9426 19.1911 30.2257C19.2215 30.256 19.2519 30.2914 19.2822 30.3268C19.3126 30.3622 19.343 30.3975 19.3733 30.4279C19.54 30.6246 19.7181 30.7988 19.899 30.9757C19.9597 31.035 20.0208 31.0947 20.0819 31.1557C20.1021 31.1658 20.1173 31.181 20.1325 31.1961C20.1476 31.2113 20.1628 31.2265 20.1831 31.2366C20.7904 31.7825 21.4179 32.3081 22.1062 32.7529C22.1467 32.7731 22.1821 32.7984 22.2176 32.8237C22.253 32.849 22.2884 32.8742 22.3289 32.8944C22.3896 32.9349 22.4554 32.9753 22.5212 33.0158C22.587 33.0562 22.6528 33.0966 22.7135 33.1371C22.8046 33.1876 22.8907 33.2381 22.9767 33.2887C23.0628 33.3392 23.1488 33.3898 23.2399 33.4403ZM51.3788 9.44174C55.5288 10.6548 58.7273 14.1121 59.4561 18.4387C59.5573 19.0452 59.618 19.6922 59.618 20.4605C59.618 21.1074 59.5573 21.7342 59.4561 22.3609C58.707 26.6673 55.5288 30.1448 51.3788 31.3579L51.3864 31.4109C51.4445 31.8163 51.5002 32.2054 51.5002 32.6316C51.5002 37.0998 47.8766 40.7188 43.4027 40.7188C41.1557 40.7188 39.111 39.7887 37.6332 38.2926C37.2284 39.3642 36.2162 40.1324 35.0015 40.1324C33.4428 40.1324 32.1674 38.8587 32.1674 37.3019C32.1674 35.7249 33.2201 35.0375 35.4874 33.9862C35.712 33.8815 35.9256 33.7658 36.1444 33.6471C36.2214 33.6054 36.2991 33.5633 36.3781 33.5212C36.5603 33.4201 36.7425 33.319 36.9045 33.2179C37.0462 33.1371 37.1676 33.0562 37.2891 32.9753C37.3296 32.9551 37.365 32.9298 37.4004 32.9046C37.4359 32.8793 37.4713 32.854 37.5118 32.8338C38.2001 32.389 38.8276 31.8633 39.4349 31.3175C39.4552 31.3073 39.4704 31.2922 39.4855 31.277C39.5007 31.2619 39.5159 31.2467 39.5362 31.2366C39.7791 30.994 40.022 30.7514 40.2447 30.5087C40.2751 30.4784 40.3054 30.443 40.3358 30.4076C40.3661 30.3723 40.3965 30.3369 40.4269 30.3066C40.5225 30.1872 40.6212 30.071 40.7194 29.9554C40.8707 29.7774 41.0206 29.6009 41.1557 29.417C43.0383 26.91 44.1922 23.7762 44.1922 20.3998C44.1922 17.0234 43.0586 13.8897 41.1557 11.3827C40.933 11.0794 40.6901 10.7761 40.4269 10.4931C40.3965 10.4627 40.3661 10.4274 40.3358 10.392C40.3054 10.3566 40.2751 10.3212 40.2447 10.2909C40.022 10.0281 39.7791 9.78544 39.5362 9.56304C39.5159 9.55293 39.5007 9.53777 39.4855 9.52261C39.4704 9.50745 39.4552 9.49228 39.4349 9.48217C38.8276 8.93629 38.2001 8.43084 37.5118 7.96583C37.4713 7.94562 37.4359 7.92035 37.4004 7.89507C37.365 7.8698 37.3296 7.84453 37.2891 7.82431C37.2284 7.78387 37.1626 7.74343 37.0968 7.70299C37.031 7.66256 36.9652 7.62213 36.9045 7.58169C36.8134 7.53115 36.7273 7.48061 36.6413 7.43006C36.5553 7.37952 36.4692 7.32897 36.3781 7.27843C36.0947 7.11668 35.791 6.95494 35.4874 6.81342C33.2403 5.74187 32.1674 5.05446 32.1674 3.49769C32.1674 1.94091 33.4428 0.667189 35.0015 0.667189C36.2162 0.667189 37.2284 1.43547 37.6332 2.50701C39.111 1.01089 41.1354 0.0808714 43.4027 0.0808714C47.8766 0.0808714 51.5002 3.69987 51.5002 8.16801C51.5002 8.59259 51.4395 9.01716 51.3788 9.44174Z" fill="white"/>
<path d="M38.6454 20.3394C38.6454 15.4669 34.6979 11.5244 29.8191 11.5244C24.9403 11.5244 20.9928 15.4669 20.9928 20.3394C20.9928 25.2119 24.9403 29.1544 29.8191 29.1544C34.6979 29.1544 38.6454 25.2119 38.6454 20.3394Z" fill="white"/>
<path fill-rule="evenodd" clip-rule="evenodd" d="M95.2786 30.4114V2H90.0746V30.4114H95.2786ZM78.134 31C80.5339 31 82.5163 30.359 84.0814 29.0771C85.6465 27.7952 86.6639 26.2648 87.1334 24.4858L82.5555 22.9553C82.2946 23.8448 81.799 24.6101 81.0686 25.251C80.3382 25.892 79.36 26.2124 78.134 26.2124C76.7515 26.2124 75.5842 25.7219 74.6321 24.7409C73.68 23.7598 73.204 22.4321 73.204 20.7578C73.204 19.0834 73.6735 17.7623 74.6126 16.7943C75.5516 15.8263 76.7124 15.3424 78.0949 15.3424C80.3122 15.3424 81.7338 16.4281 82.3598 18.5995L87.016 17.0298C86.5726 15.2246 85.5683 13.6876 84.0032 12.4188C82.4381 11.15 80.4295 10.5156 77.9775 10.5156C75.1604 10.5156 72.7931 11.4835 70.8759 13.4195C68.9586 15.3554 68 17.8015 68 20.7578C68 23.6879 68.9717 26.1274 70.915 28.0765C72.8583 30.0255 75.2647 31 78.134 31ZM115.397 28.0961C113.479 30.032 111.073 31 108.178 31C105.282 31 102.876 30.032 100.959 28.0961C99.0414 26.1601 98.0828 23.714 98.0828 20.7578C98.0828 17.8015 99.0349 15.3554 100.939 13.4195C102.869 11.4835 105.282 10.5156 108.178 10.5156C111.073 10.5156 113.479 11.4835 115.397 13.4195C117.314 15.3554 118.273 17.8015 118.273 20.7578C118.273 23.714 117.314 26.1601 115.397 28.0961ZM108.178 26.2517C106.821 26.2517 105.66 25.7677 104.695 24.7997C103.756 23.8318 103.287 22.4844 103.287 20.7578C103.287 19.0311 103.763 17.6838 104.715 16.7158C105.667 15.7479 106.821 15.2639 108.178 15.2639C109.534 15.2639 110.688 15.7479 111.64 16.7158C112.593 17.6838 113.069 19.0311 113.069 20.7578C113.069 22.4844 112.593 23.8318 111.64 24.7997C110.688 25.7677 109.534 26.2517 108.178 26.2517ZM131.23 30.274C130.252 30.7057 129.215 30.9215 128.12 30.9215C125.85 30.9215 124.063 30.1955 122.759 28.7436C121.455 27.2916 120.803 25.4799 120.803 23.3085V11.1042H126.007V22.249C126.007 23.4001 126.307 24.3354 126.907 25.0548C127.507 25.7742 128.381 26.134 129.528 26.134C130.65 26.134 131.537 25.7873 132.189 25.094C132.841 24.4008 133.167 23.4786 133.167 22.3275V11.1042H138.371V26.9188C138.371 28.1484 138.436 29.3126 138.567 30.4114H133.598C133.493 29.8881 133.441 29.1949 133.441 28.3315C132.945 29.1949 132.209 29.8424 131.23 30.274ZM150.899 30.8823C152.151 30.8823 153.253 30.6337 154.205 30.1367C155.157 29.6396 155.855 28.9856 156.298 28.1746C156.298 29.0117 156.363 29.7573 156.494 30.4114H161.463C161.359 29.3649 161.307 28.2007 161.307 26.9188V2H156.181V13.0271C155.32 11.4312 153.507 10.6333 150.742 10.6333C148.055 10.6333 145.845 11.6013 144.11 13.5372C142.375 15.4732 141.508 17.8669 141.508 20.7185C141.508 23.6486 142.388 26.0751 144.149 27.998C145.91 29.9208 148.16 30.8823 150.899 30.8823ZM148.081 24.7409C148.968 25.7219 150.116 26.2124 151.525 26.2124C152.907 26.2124 154.042 25.7154 154.929 24.7212C155.816 23.7271 156.259 22.3798 156.259 20.6793C156.259 19.005 155.816 17.6903 154.929 16.7355C154.042 15.7806 152.907 15.3031 151.525 15.3031C150.142 15.3031 149.001 15.7871 148.101 16.7551C147.201 17.723 146.751 19.0442 146.751 20.7185C146.751 22.419 147.195 23.7598 148.081 24.7409ZM174.323 31C176.723 31 178.705 30.359 180.27 29.0771C181.836 27.7952 182.853 26.2648 183.322 24.4858L178.744 22.9553C178.484 23.8448 177.988 24.6101 177.258 25.251C176.527 25.892 175.549 26.2124 174.323 26.2124C172.941 26.2124 171.773 25.7219 170.821 24.7409C169.869 23.7598 169.393 22.4321 169.393 20.7578C169.393 19.0834 169.863 17.7623 170.802 16.7943C171.741 15.8263 172.901 15.3424 174.284 15.3424C176.501 15.3424 177.923 16.4281 178.549 18.5995L183.205 17.0298C182.762 15.2246 181.757 13.6876 180.192 12.4188C178.627 11.15 176.619 10.5156 174.167 10.5156C171.349 10.5156 168.982 11.4835 167.065 13.4195C165.148 15.3554 164.189 17.8015 164.189 20.7578C164.189 23.6879 165.161 26.1274 167.104 28.0765C169.047 30.0255 171.454 31 174.323 31ZM198.12 28.0961C196.894 30.0059 195.002 30.9608 192.446 30.9608C190.464 30.9608 188.866 30.3852 187.653 29.2341C186.44 28.083 185.834 26.7226 185.834 25.1529C185.834 23.5047 186.368 22.1836 187.438 21.1894C188.507 20.1953 189.89 19.5674 191.585 19.3058L196.32 18.5995C197.285 18.4687 197.767 18.0108 197.767 17.226C197.767 16.4935 197.487 15.8917 196.926 15.4208C196.365 14.9499 195.563 14.7145 194.52 14.7145C193.424 14.7145 192.557 15.0153 191.918 15.6171C191.279 16.2188 190.92 16.9644 190.842 17.8539L186.225 16.8728C186.407 15.1985 187.229 13.7203 188.69 12.4384C190.151 11.1565 192.081 10.5156 194.481 10.5156C197.35 10.5156 199.463 11.2023 200.819 12.5758C202.176 13.9493 202.854 15.7086 202.854 17.8539V27.3505C202.854 28.5016 202.932 29.5219 203.089 30.4114H198.315C198.185 29.8358 198.12 29.0641 198.12 28.0961ZM193.542 27.0758C192.759 27.0758 192.146 26.8599 191.703 26.4283C191.259 25.9966 191.038 25.4668 191.038 24.839C191.038 23.4524 191.833 22.6414 193.424 22.406L197.767 21.7388V22.6022C197.767 24.198 197.37 25.3426 196.574 26.0359C195.779 26.7291 194.768 27.0758 193.542 27.0758ZM211.997 19.3058V30.4114H206.793V11.1042H211.84V13.498C212.388 12.5562 213.171 11.8367 214.188 11.3396C215.205 10.8426 216.275 10.594 217.396 10.594C219.666 10.594 221.394 11.3069 222.581 12.7327C223.768 14.1585 224.361 15.9964 224.361 18.2463V30.4114H219.157V19.1488C219.157 17.9977 218.864 17.069 218.277 16.3627C217.69 15.6563 216.797 15.3031 215.597 15.3031C214.501 15.3031 213.627 15.6825 212.975 16.4411C212.323 17.1998 211.997 18.1547 211.997 19.3058ZM233.543 30.4114V19.3058C233.543 18.1547 233.869 17.1998 234.521 16.4411C235.173 15.6825 236.047 15.3031 237.143 15.3031C238.343 15.3031 239.236 15.6563 239.823 16.3627C240.41 17.069 240.704 17.9977 240.704 19.1488V30.4114H245.907V18.2463C245.907 15.9964 245.314 14.1585 244.127 12.7327C242.94 11.3069 241.212 10.594 238.943 10.594C237.821 10.594 236.752 10.8426 235.734 11.3396C234.717 11.8367 233.934 12.5562 233.387 13.498V11.1042H228.339V30.4114H233.543ZM265.752 28.0961C263.834 30.032 261.428 31 258.533 31C255.637 31 253.231 30.032 251.314 28.0961C249.396 26.1601 248.438 23.714 248.438 20.7578C248.438 17.8015 249.39 15.3554 251.294 13.4195C253.224 11.4835 255.637 10.5156 258.533 10.5156C261.428 10.5156 263.834 11.4835 265.752 13.4195C267.669 15.3554 268.628 17.8015 268.628 20.7578C268.628 23.714 267.669 26.1601 265.752 28.0961ZM258.533 26.2517C257.176 26.2517 256.015 25.7677 255.05 24.7997C254.111 23.8318 253.642 22.4844 253.642 20.7578C253.642 19.0311 254.118 17.6838 255.07 16.7158C256.022 15.7479 257.176 15.2639 258.533 15.2639C259.889 15.2639 261.043 15.7479 261.995 16.7158C262.948 17.6838 263.424 19.0311 263.424 20.7578C263.424 22.4844 262.948 23.8318 261.995 24.7997C261.043 25.7677 259.889 26.2517 258.533 26.2517ZM276.636 19.3058V30.4114H271.432V11.1042H276.479V13.498C277.027 12.5562 277.81 11.8367 278.827 11.3396C279.844 10.8426 280.914 10.594 282.035 10.594C284.305 10.594 286.033 11.3069 287.22 12.7327C288.407 14.1585 289 15.9964 289 18.2463V30.4114H283.796V19.1488C283.796 17.9977 283.503 17.069 282.916 16.3627C282.329 15.6563 281.435 15.3031 280.235 15.3031C279.14 15.3031 278.266 15.6825 277.614 16.4411C276.962 17.1998 276.636 18.1547 276.636 19.3058Z" fill="white"/>
</svg>
