<svg fill="none" height="39" viewBox="0 0 142 39" width="142" xmlns="http://www.w3.org/2000/svg"><g clip-rule="evenodd" fill="#fff" fill-rule="evenodd"><path d="m27.4407 16.4357h-11.9722c-.3089 0-.5593.2495-.5593.5578v5.8338c0 .3075.2504.5582.5593.5582h4.6703v7.2478s-1.0486.3564-3.948.3564c-3.4204 0-8.19865-1.2453-8.19865-11.7176 0-10.47415 4.97565-11.85237 9.64675-11.85237 4.0437 0 5.7853.70921 6.8941 1.0514.3485.10605.6704-.23929.6704-.54758l1.3354-5.63625c0-.14429-.049-.31814-.2136-.43562-.4501-.32011-3.1964-1.85168-10.1344-1.85168-7.99218 0-16.1908 3.38877-16.1908 19.6806 0 16.2918 9.38647 18.7194 17.2963 18.7194 6.5492 0 10.5221-2.7891 10.5221-2.7891.1638-.0903.1816-.3182.1816-.4227v-18.1947c0-.3083-.2504-.5578-.5593-.5578z"/><path d="m88.8 2.94381c0-.30102-.2485-.54391-.56-.54391h-6.7887c-.3099 0-.562.24289-.562.54391 0 .00153.002 12.59749.002 12.59749h-10.5821v-12.59749c0-.30102-.2494-.54391-.5601-.54391h-6.7882c-.3087 0-.5609.24289-.5609.54391v34.11029c0 .301.2522.5458.5609.5458h6.7882c.3107 0 .5601-.2448.5601-.5458v-14.59h10.5821s-.0188 14.5888-.0188 14.59c0 .301.2518.5458.5625.5458h6.8046c.3111 0 .5596-.2448.5604-.5458z"/><path d="m40 6.79871c0-2.4329-1.9696-4.39881-4.4002-4.39881-2.4281 0-4.3998 1.96591-4.3998 4.39881 0 2.43013 1.9717 4.40119 4.3998 4.40119 2.4306 0 4.4002-1.97106 4.4002-4.40119z"/><path d="m39.2 29.6143c0-.9026 0-16.2534 0-16.2534 0-.3088-.254-.5611-.5675-.5611h-6.8384c-.3135 0-.5941.3175-.5941.6262v23.2858c0 .6843.4347.888.997.888h6.1609c.6763 0 .8421-.3257.8421-.899 0-1.2481 0-6.1377 0-7.0865z"/><path d="m113.851 12.7998h-6.551c-.3 0-.545.2535-.545.5654v17.3501s-1.664 1.2471-4.027 1.2471c-2.361 0-2.9882-1.0979-2.9882-3.4667 0-2.3719 0-15.1305 0-15.1305 0-.3119-.2441-.5654-.5451-.5654h-6.6489c-.2998 0-.5458.2535-.5458.5654v16.276c0 7.037 3.8288 8.7586 9.096 8.7586 4.322 0 7.806-2.4454 7.806-2.4454s.165 1.2888.241 1.4415c.074.1524.27.3064.481.3064l4.23-.0195c.3 0 .546-.2539.546-.5646l-.002-23.753c0-.3119-.245-.5654-.547-.5654z"/><path d="m129.373 32.1807c-2.352-.0683-3.946-1.0902-3.946-1.0902v-10.8411s1.573-.9236 3.503-1.0887c2.441-.2092 4.793.4968 4.793 6.0738 0 5.8806-1.062 7.0414-4.35 6.9462zm2.673-19.2879c-3.85 0-6.468 1.6453-6.468 1.6453v-11.59232c0-.30212-.253-.54588-.564-.54588h-6.85c-.311 0-.564.24376-.564.54588v34.23342c0 .3021.253.5478.565.5478h4.753c.214 0 .376-.1056.496-.2906.118-.1839.288-1.5785.288-1.5785s2.801 2.542 8.103 2.542c6.225 0 9.795-3.0242 9.795-13.5758 0-10.5524-5.702-11.9313-9.554-11.9313z"/><path d="m58.5452 12.7098h-5.0764s-.0075-6.72647-.0075-6.72767c0-.25495-.131-.38203-.4245-.38203h-6.9172c-.2692 0-.4134.11871-.4134.37805v6.95235s-3.4665.8397-3.7012.9074c-.2331.0678-.405.2837-.405.5414v4.3689c0 .3143.2501.5677.5595.5677h3.5467v10.5105c0 7.8068 5.4584 8.5737 9.1413 8.5737 1.6833 0 3.6965-.5422 4.0289-.6653.2009-.0741.3176-.2832.3176-.5095l.006-4.8059c0-.3135-.2641-.5673-.5611-.5673-.2962 0-1.0527.1207-1.8318.1207-2.4937 0-3.3383-1.1632-3.3383-2.6686 0-1.5043-.0003-9.9883-.0003-9.9883h5.0767c.3093 0 .5599-.2534.5599-.5677v-5.4724c0-.3135-.2506-.566-.5599-.566z"/></g></svg>