<svg width="117" height="46" viewBox="0 0 117 46" fill="none" xmlns="http://www.w3.org/2000/svg">
<path fill-rule="evenodd" clip-rule="evenodd" d="M116.8 0H0V39.0857H32.4444V45.6H58.4V39.0857H116.8V0ZM19.4667 32.5714H6.48889V32.2345H6.27114V6.28966H32.1396V6.51429H32.4444V32.5714H25.9556V32.2345H25.6725V13.0286H19.4667V32.5714ZM38.9333 6.51429V39.0857H51.9111V38.5241H52.1289V32.5714H64.8889V32.0772H65.0631V6.28966H39.1946V6.51429H38.9333ZM58.4 13.0286H52.1289V25.6303H58.4V13.0286ZM71.3778 32.2345V32.5714H84.3556V32.2345H84.3991V13.0286H90.8444V32.5714H97.3333V32.2345H97.464V13.0286H103.822V32.5714H110.311V32.2345H110.529V6.28966H71.3342V32.2345H71.3778Z" fill="white"/>
</svg>
